# xmcd
#
# Track frame offsets:
#	150
#	1991
#	13299
#	25192
#	34325
#	47752
#	57637
#	77615
#	98459
#	111544
#	123296
#	138942
#	151766
#	160317
#	173645
#	184229
#	198906
#	210988
#	232421
#	244058
#	259044
#	289154
#	300427
#	315502
#	330397
#	336960
#	353395
#
# Disc length: 4769 seconds
#
# Revision: 1
# Processed by: cddbd v1.5.2PL0 Copyright (c) Steve Scherf et al.
# Submitted via: audiograbber 1.83.01
#
DISCID=6f129f1b
DTITLE=Various Artist - Oxford American Southern Music 2010
DYEAR=2010
DGENRE=Southern
TTITLE0=Charlie Louvin - Jammin' Intro
TTITLE1=Ralph Soul Jackson - Match Box
TTITLE2=Curley Money and His Rolling Ramblers - Stop Your Knockin'
TTITLE3=The K-Pers - The Red Invasion
TTITLE4=Maddox Brothers and Rose - New Mule Skinner Blues
TTITLE5=Mary Gresham - Get on Back on the Right Track
TTITLE6=Phosphorescent - It's Hard to Be Humble (When You're From Alabama)
TTITLE7=Odetta - The Times They Are A-Changin'
TTITLE8=Black Haze Express - Pretty Soon
TTITLE9=Hardrock Gunter and The Pebbles - Gonna Dance All Night
TTITLE10=Jim Bob and The Leisure Suits - Gangland Wars
TTITLE11=Dan Pickett - 99 1/2 Won't Do
TTITLE12=Sammy Salvo - A Mushroom Cloud
TTITLE13=Judy Henske and Jerry Yester - Snowblind
TTITLE14=Lil Greenwood - I'm Crying
TTITLE15=Sam Dees - The World Don't Owe You Nothing
TTITLE16=Gosdin Brothers - There Must Be a Someone (I Can Turn To)
TTITLE17=G-Side and Sound Of Silence - Huntsville International
TTITLE18=Eddie Cole and His Gang - Abalabip
TTITLE19=Crazy Teens - Crazy Date
TTITLE20=Rev Fred Lane and Ron 'Pate's Debonnairs - Rubber Room
TTITLE21=Baker Knight - My Memories of You
TTITLE22=Dinah Washington - Cold, Cold Heart
TTITLE23=Robert Brown and Sons Of The South - Nobody Knows
TTITLE24=Sex Clark Five - Red Shift
TTITLE25=King Britt Presents Sister Gertrude Morgan - Precious Lord Lead Me On
TTITLE26=Various Artist - Berlin Wall
EXTD=
EXTT0=
EXTT1=
EXTT2=
EXTT3=
EXTT4=
EXTT5=
EXTT6=
EXTT7=
EXTT8=
EXTT9=
EXTT10=
EXTT11=
EXTT12=
EXTT13=
EXTT14=
EXTT15=
EXTT16=
EXTT17=
EXTT18=
EXTT19=
EXTT20=
EXTT21=
EXTT22=
EXTT23=
EXTT24=
EXTT25=
EXTT26=
PLAYORDER=
